# xmcd
#
# Track frame offsets: 
#        150
#        12765
#        32222
#        48027
#        62897
#        80375
#        95767
#        120682
#        141562
#        160580
#        184715
#        200800
#        218967
#
# Disc length: 3241 seconds
#
# Revision: 4
# Processed by: cddbd v1.5PL3 Copyright (c) Steve Scherf et al.
# Submitted via: ExactAudioCopy v0.95a3
#
DISCID=b80ca70d
DTITLE=Deana Carter - Everything's Gonna Be Alright
DYEAR=1998
DGENRE=Country
TTITLE0=You Still Shake Me
TTITLE1=Ruby Brown
TTITLE2=Absence Of The Heart
TTITLE3=Brand New Key
TTITLE4=Michelangelo Sky
TTITLE5=People Miss Planes
TTITLE6=Never Comin' Down
TTITLE7=Make Up Your Mind
TTITLE8=Colour Everywhere
TTITLE9=Angels Working Overtime
TTITLE10=Dickson County
TTITLE11=The Train Song
TTITLE12=Everything's Gonna Be Alright
EXTD=
EXTT0=
EXTT1=
EXTT2=
EXTT3=
EXTT4=
EXTT5=
EXTT6=
EXTT7=
EXTT8=
EXTT9=
EXTT10=
EXTT11=
EXTT12=
PLAYORDER=
